<svg width="28" height="23" viewBox="0 0 28 23" fill="none" xmlns="http://www.w3.org/2000/svg">
<path opacity="0.5" d="M7.31248 17.0882L1.71484 16.8903L7.30091 16.5834C7.36321 16.5798 7.42463 16.6016 7.47181 16.6424C7.47359 16.6442 7.47626 16.646 7.47804 16.6479C7.65516 16.8013 7.5439 17.0954 7.31159 17.0873L7.31248 17.0882Z" fill="url(#paint0_linear_230_1138)"/>
<path opacity="0.5" d="M5.78611 15.472L1.95703 15.2505L5.77987 14.9918C5.85642 14.9863 5.93029 15.0208 5.97747 15.0817C5.97925 15.0835 5.98014 15.0853 5.98192 15.0871C6.10742 15.2478 5.98726 15.4838 5.78611 15.472Z" fill="url(#paint1_linear_230_1138)"/>
<path opacity="0.5" d="M4.62373 13.9008L0.480469 13.6993L4.60326 13.2662C4.72787 13.2535 4.84625 13.3189 4.90588 13.4305C4.90677 13.4333 4.90856 13.4351 4.90945 13.4378C5.02427 13.6521 4.86227 13.9117 4.62373 13.9008Z" fill="url(#paint2_linear_230_1138)"/>
<path d="M10.599 22.3989C11.5792 22.3989 12.3738 21.5884 12.3738 20.5886C12.3738 19.5888 11.5792 18.7783 10.599 18.7783C9.61882 18.7783 8.82422 19.5888 8.82422 20.5886C8.82422 21.5884 9.61882 22.3989 10.599 22.3989Z" fill="url(#paint3_linear_230_1138)"/>
<path d="M22.1615 22.3989C23.1417 22.3989 23.9363 21.5884 23.9363 20.5886C23.9363 19.5888 23.1417 18.7783 22.1615 18.7783C21.1813 18.7783 20.3867 19.5888 20.3867 20.5886C20.3867 21.5884 21.1813 22.3989 22.1615 22.3989Z" fill="url(#paint4_linear_230_1138)"/>
<path d="M13.1871 0.029559C14.9183 -0.0421627 17.5858 -0.0739385 19.009 1.05908C19.0669 1.10448 19.1728 1.1762 19.1888 1.24429L18.4892 4.97019C18.483 5.00378 18.4723 5.05008 18.4723 5.05008C18.4723 5.05008 17.8751 4.56891 17.7353 4.44816C16.4465 3.3333 15.5769 3.23706 13.9027 3.29154C12.3068 3.34329 10.8631 4.04507 10.4528 5.74551C9.86358 8.18314 11.4399 9.84636 13.7826 9.88177C15.0082 9.89993 16.2427 9.86543 17.4728 9.87904H17.544L16.8444 13.1247L16.8346 13.1683H16.767C15.5574 13.1501 14.3406 13.2127 13.1319 13.1755C11.148 13.1147 9.35624 12.5727 7.99889 11.0357C5.87786 8.63435 6.06032 4.62429 8.14308 2.25929C9.48085 0.740421 11.2103 0.111267 13.188 0.0304664L13.1871 0.029559Z" fill="url(#paint5_linear_230_1138)"/>
<path d="M16.208 19.8461C16.2027 19.8443 16.1715 19.8134 16.168 19.8052L17.552 13.3485C18.1181 13.3303 18.6851 13.3412 19.2521 13.3403C20.3709 13.3385 21.5475 13.3893 22.6681 13.3403C23.5066 13.3031 24.3281 13.0543 24.669 12.1982C25.1158 11.0761 24.5417 9.91489 23.3152 9.83499L18.2979 9.82682H18.2578L18.2774 9.74602L18.8391 7.17403L18.8862 7.14225C19.746 7.12863 20.6085 7.12954 21.4692 7.13226C23.2556 7.13862 25.3179 6.94978 26.7589 8.2444C28.5613 9.86223 28.3094 13.1741 26.5827 14.752C24.8079 16.3726 22.2445 15.9631 20.0478 16.0258L19.22 19.8161C19.2138 19.8225 19.1755 19.847 19.1711 19.847H16.2062L16.208 19.8461Z" fill="url(#paint6_linear_230_1138)"/>
<path d="M23.7886 4.70454H22.2594L21.9853 6.30058H20.5362L20.8104 4.70454H19.2812L19.5198 3.30733H21.0578L21.332 1.70312H22.781L22.5069 3.30733H24.036L23.7886 4.70454Z" fill="url(#paint7_linear_230_1138)"/>
<path d="M16.0577 16.9291L15.7836 18.2055C15.3982 18.2146 14.8285 18.2255 14.5268 18.2291H14.4876C14.0916 18.2291 13.3831 18.161 12.9888 18.0957C9.86284 17.5809 7.13479 15.5455 5.6911 12.653C4.92297 11.1169 4.56783 9.66428 4.40584 8.71556C4.08986 6.86532 3.70891 4.68916 3.53802 3.71047H0.623048C0.278591 3.71047 0 3.42631 0 3.07496C0 2.72362 0.278591 2.43945 0.623048 2.43945H4.58029L4.67197 2.96329C4.67731 2.99325 5.21135 6.03371 5.63324 8.49676C5.78099 9.35924 6.1032 10.6802 6.80012 12.0765C8.06491 14.6085 10.453 16.3898 13.1872 16.841C13.5299 16.8973 14.1975 16.959 14.5108 16.9581C14.906 16.9536 15.7693 16.9354 16.0586 16.9291H16.0577Z" fill="url(#paint8_linear_230_1138)"/>
<defs>
<linearGradient id="paint0_linear_230_1138" x1="1.71573" y1="-6.17054" x2="7.56615" y2="-6.17054" gradientUnits="userSpaceOnUse">
<stop stop-color="#072A3E" stop-opacity="0.3"/>
<stop offset="0.13" stop-color="#1C235A" stop-opacity="0.4"/>
<stop offset="0.42" stop-color="#5213A4" stop-opacity="0.67"/>
<stop offset="0.75" stop-color="#9500FF"/>
</linearGradient>
<linearGradient id="paint1_linear_230_1138" x1="1.95703" y1="15.2314" x2="6.03354" y2="15.2314" gradientUnits="userSpaceOnUse">
<stop stop-color="#072A3E" stop-opacity="0.3"/>
<stop offset="0.13" stop-color="#1C235A" stop-opacity="0.4"/>
<stop offset="0.42" stop-color="#5213A4" stop-opacity="0.67"/>
<stop offset="0.75" stop-color="#9500FF"/>
</linearGradient>
<linearGradient id="paint2_linear_230_1138" x1="0.480469" y1="13.5831" x2="4.94772" y2="13.5831" gradientUnits="userSpaceOnUse">
<stop stop-color="#072A3E" stop-opacity="0.3"/>
<stop offset="0.13" stop-color="#1C235A" stop-opacity="0.4"/>
<stop offset="0.42" stop-color="#5213A4" stop-opacity="0.67"/>
<stop offset="0.75" stop-color="#9500FF"/>
</linearGradient>
<linearGradient id="paint3_linear_230_1138" x1="10.5216" y1="16.9126" x2="10.7133" y2="25.6017" gradientUnits="userSpaceOnUse">
<stop offset="0.11" stop-color="#9500FF"/>
<stop offset="0.2" stop-color="#9001F8"/>
<stop offset="0.34" stop-color="#8305E7"/>
<stop offset="0.49" stop-color="#6E0BCB"/>
<stop offset="0.66" stop-color="#5113A3"/>
<stop offset="0.84" stop-color="#2C1E71"/>
<stop offset="1" stop-color="#072A3E"/>
</linearGradient>
<linearGradient id="paint4_linear_230_1138" x1="22.0787" y1="16.6575" x2="22.2704" y2="25.3457" gradientUnits="userSpaceOnUse">
<stop offset="0.11" stop-color="#9500FF"/>
<stop offset="0.2" stop-color="#9001F8"/>
<stop offset="0.34" stop-color="#8305E7"/>
<stop offset="0.49" stop-color="#6E0BCB"/>
<stop offset="0.66" stop-color="#5113A3"/>
<stop offset="0.84" stop-color="#2C1E71"/>
<stop offset="1" stop-color="#072A3E"/>
</linearGradient>
<linearGradient id="paint5_linear_230_1138" x1="12.8405" y1="4.353e-08" x2="17.0542" y2="22.0266" gradientUnits="userSpaceOnUse">
<stop stop-color="#9500FF"/>
<stop offset="1" stop-color="#072A3E"/>
</linearGradient>
<linearGradient id="paint6_linear_230_1138" x1="22.0835" y1="7.12598" x2="26.2806" y2="28.3197" gradientUnits="userSpaceOnUse">
<stop stop-color="#9500FF"/>
<stop offset="1" stop-color="#072A3E"/>
</linearGradient>
<linearGradient id="paint7_linear_230_1138" x1="21.8767" y1="2.66819" x2="21.1163" y2="7.14183" gradientUnits="userSpaceOnUse">
<stop offset="0.2" stop-color="#9500FF"/>
<stop offset="0.35" stop-color="#9200FB"/>
<stop offset="0.47" stop-color="#8B02F2"/>
<stop offset="0.57" stop-color="#7F06E1"/>
<stop offset="0.67" stop-color="#6E0BCA"/>
<stop offset="0.77" stop-color="#5811AC"/>
<stop offset="0.86" stop-color="#3D1A87"/>
<stop offset="0.95" stop-color="#1D235C"/>
<stop offset="1" stop-color="#072A3E"/>
</linearGradient>
<linearGradient id="paint8_linear_230_1138" x1="7.82548" y1="12.5885" x2="7.05799" y2="22.0543" gradientUnits="userSpaceOnUse">
<stop offset="0.11" stop-color="#9500FF"/>
<stop offset="1" stop-color="#072A3E"/>
</linearGradient>
</defs>
</svg>
